<svg xmlns="http://www.w3.org/2000/svg" xmlns:xlink="http://www.w3.org/1999/xlink" width="500" zoomAndPan="magnify" viewBox="0 0 375 374.999991" height="500" preserveAspectRatio="xMidYMid meet" version="1.0"><defs><clipPath id="5d1d4e8bc4"><path d="M 155 83.980469 L 220 83.980469 L 220 152 L 155 152 Z M 155 83.980469 " clip-rule="nonzero"/></clipPath><clipPath id="4aa5f15a7f"><path d="M 84 155 L 290.976562 155 L 290.976562 290.976562 L 84 290.976562 Z M 84 155 " clip-rule="nonzero"/></clipPath></defs><rect x="-37.5" width="450" fill="#ffffff" y="-37.499999" height="449.999989" fill-opacity="1"/><rect x="-37.5" width="450" fill="#435ebe" y="-37.499999" height="449.999989" fill-opacity="1"/><g clip-path="url(#5d1d4e8bc4)"><path fill="#ffffff" d="M 155.136719 118.71875 L 155.136719 116.359375 C 155.136719 98.632812 169.671875 83.980469 187.398438 83.980469 C 205.238281 83.980469 219.777344 98.632812 219.777344 116.359375 L 219.777344 118.722656 C 219.777344 136.566406 205.242188 151.101562 187.398438 151.101562 C 169.675781 151.097656 155.136719 136.566406 155.136719 118.71875 Z M 155.136719 118.71875 " fill-opacity="1" fill-rule="evenodd"/></g><g clip-path="url(#4aa5f15a7f)"><path fill="#ffffff" d="M 116.257812 155.117188 L 155.964844 155.117188 C 163.171875 161.496094 172.15625 165.632812 182.078125 166.8125 L 182.078125 190.800781 C 173.097656 193.164062 166.597656 201.316406 166.597656 210.890625 C 166.597656 211.128906 166.597656 211.246094 166.597656 211.484375 C 166.597656 211.71875 166.597656 211.839844 166.597656 212.074219 C 166.597656 212.195312 166.597656 212.3125 166.597656 212.546875 C 166.597656 212.785156 166.597656 212.902344 166.597656 213.019531 L 166.597656 213.140625 C 166.71875 213.257812 166.71875 213.375 166.71875 213.613281 C 166.71875 213.730469 166.71875 213.96875 166.839844 214.082031 L 166.839844 214.203125 C 166.839844 214.324219 166.839844 214.441406 166.839844 214.558594 L 166.839844 214.679688 C 166.957031 214.800781 166.957031 214.914062 166.957031 215.035156 L 166.957031 215.273438 L 167.078125 215.628906 L 167.078125 215.75 L 167.199219 216.105469 L 167.199219 216.222656 L 167.320312 216.582031 L 167.4375 216.816406 L 167.4375 217.050781 L 167.558594 217.289062 L 167.679688 217.523438 L 167.679688 217.761719 L 167.796875 217.996094 L 167.917969 218.234375 L 167.917969 218.46875 L 168.039062 218.703125 L 168.160156 218.941406 L 168.277344 219.296875 L 168.398438 219.417969 L 168.519531 219.652344 L 168.640625 219.890625 C 171.949219 226.976562 179.15625 231.824219 187.429688 231.824219 C 195.820312 231.824219 203.027344 226.976562 206.335938 219.890625 L 206.457031 219.652344 L 206.578125 219.417969 L 206.695312 219.296875 L 206.816406 218.941406 L 206.816406 218.703125 L 207.058594 218.234375 L 207.175781 217.996094 L 207.296875 217.761719 L 207.296875 217.523438 L 207.417969 217.289062 L 207.417969 217.050781 L 207.535156 216.816406 L 207.65625 216.582031 L 207.65625 216.222656 L 207.777344 216.105469 C 207.777344 215.984375 207.777344 215.867188 207.777344 215.75 L 207.898438 215.628906 L 207.898438 215.273438 L 208.015625 215.035156 C 208.015625 214.914062 208.015625 214.800781 208.015625 214.679688 L 208.015625 214.558594 C 208.136719 214.441406 208.136719 214.324219 208.136719 214.203125 L 208.136719 214.082031 C 208.136719 213.964844 208.257812 213.726562 208.257812 213.613281 C 208.257812 213.375 208.257812 213.253906 208.257812 213.140625 L 208.257812 213.019531 C 208.257812 212.898438 208.378906 212.785156 208.378906 212.546875 C 208.378906 212.3125 208.378906 212.191406 208.378906 212.074219 C 208.378906 211.839844 208.378906 211.71875 208.378906 211.484375 C 208.378906 211.246094 208.378906 211.128906 208.378906 210.890625 C 208.378906 201.316406 201.875 193.164062 192.894531 190.800781 L 192.894531 166.8125 C 202.820312 165.632812 211.800781 161.496094 218.894531 155.117188 L 258.601562 155.117188 C 276.441406 155.117188 290.980469 169.769531 290.980469 187.496094 C 290.980469 205.339844 276.445312 219.875 258.601562 219.875 L 219.839844 219.875 L 219.839844 258.636719 C 219.839844 276.480469 205.304688 291.019531 187.457031 291.019531 C 169.734375 291.019531 155.199219 276.484375 155.199219 258.636719 L 155.199219 219.875 L 116.257812 219.875 C 98.53125 219.875 84 205.339844 84 187.496094 C 84 169.769531 98.53125 155.117188 116.257812 155.117188 Z M 116.257812 155.117188 " fill-opacity="1" fill-rule="evenodd"/></g><path fill="#ffffff" d="M 187.398438 200.257812 C 193.304688 200.257812 198.03125 205.101562 198.03125 210.890625 C 198.03125 216.800781 193.300781 221.644531 187.398438 221.644531 C 181.609375 221.644531 176.761719 216.800781 176.761719 210.890625 C 176.761719 205.101562 181.609375 200.257812 187.398438 200.257812 Z M 187.398438 200.257812 " fill-opacity="1" fill-rule="evenodd"/></svg>